<svg enable-background="new 0 0 512 512" viewBox="0 0 512 512" xmlns="http://www.w3.org/2000/svg"><g fill="#0a233f"><path d="m484.5 385-31-8.8c-1.3-.4-2.3-1.6-2.3-3v-10.3c2.5-1.7 4.9-3.7 7.2-5.9 7.1-6.9 12.2-15.4 14.8-24.7 2.4-6.4 3.7-13.3 3.7-20.6 0-32.1-25.4-58.2-56.7-58.2s-56.7 26.1-56.7 58.2c0 3.8.4 7.6 1.1 11.2 2.2 16.2 11 30.4 23.5 39.5v10.8c0 1.7 0 2.4-6.2 4.1l-15.1 4.3-43.7-15.9c.2-2.1-.5-4.2-2-5.7l-14-14.7v-24.6c1.5-1.2 2.9-2.5 4.3-3.8 17.6-16.5 27.7-39.8 27.7-64v-19.7c5.3-11.6 8-23.8 8-36.5v-67.2c0-4.1-3.4-7.5-7.5-7.5h-112.2c-39.5 0-72 22.9-71.7 58.6v16c0 12.6 2.7 24.9 8 36.5v16.9c0 28 12.5 53.3 32.1 69.9v25.2l-14 14.7c-1.5 1.6-2.2 3.7-2 5.7l-46.1 16.8c-3.3 1.2-6.5 2.9-9.3 4.9l-7.2-3.6c21.6-9.4 28.4-22.6 28.7-23.2 1.1-2.1 1.1-4.6 0-6.7-5.4-10.8-6.1-30.6-6.6-46.6-.2-5.3-.3-10.3-.7-14.8-2.6-36-29.9-63.1-63.6-63.1s-61 27.3-63.5 63.3c-.3 4.5-.5 9.5-.7 14.8-.5 15.9-1.2 35.7-6.6 46.6-1.1 2.1-1.1 4.6 0 6.7.3.7 7.1 13.8 28.8 23.2l-20.1 10.1c-10.8 5.3-17.5 16.1-17.5 28.1v55.4c0 4.1 3.4 7.5 7.5 7.5s7.5-3.4 7.5-7.5v-55.4c0-6.3 3.5-12 9.2-14.8l25.1-12.5 8.7 8.3c6.1 5.8 13.9 8.7 21.7 8.7s15.6-2.9 21.7-8.7l8.7-8.3 8.2 4.1c-3.8 6.2-6 13.4-6 20.9v57.7c0 4.1 3.4 7.5 7.5 7.5s7.5-3.4 7.5-7.5v-57.7c0-10.3 6.5-19.6 16.2-23.1l48.7-17.7 20.3 30.4c2.6 3.9 6.7 6.4 11.4 6.8.5.1 1 .1 1.5.1 4.1 0 8-1.6 11-4.5l12.4-12.4v78.1c0 4.1 3.4 7.5 7.5 7.5s7.5-3.4 7.5-7.5v-78.1l12.4 12.4c2.9 2.9 6.9 4.5 11 4.5.5 0 1 0 1.5-.1 4.6-.5 8.8-3 11.4-6.8l20.3-30.4 48.7 17.7c9.7 3.5 16.2 12.8 16.2 23.1v57.7c0 4.1 3.4 7.5 7.5 7.5s7.5-3.4 7.5-7.5v-57.7c0-10.4-4.1-20.2-11.1-27.4l1.9-.5c1.9-.5 4.4-1.3 7-2.5l19.1 19.1v69.1c0 4.1 3.4 7.5 7.5 7.5s7.5-3.4 7.5-7.5v-69.1l19-19c1 .5 2.1.9 3.2 1.3l31 8.9c7.1 2 12 8.6 12 15.9v62c0 4.1 3.4 7.5 7.5 7.5s7.5-3.4 7.5-7.5v-62c-.4-14.1-9.8-26.6-23.3-30.5zm-441-13.2c-14-5-21.1-11.8-24.1-15.5 2-5.4 3.4-11.5 4.3-18 4.1 9.9 11.1 18.4 19.8 24.4zm43 20.3c-6.4 6.1-16.4 6.1-22.8 0l-7-6.6c1.2-2.2 1.8-4.7 1.8-7.3v-8c5.2 1.6 10.8 2.5 16.6 2.5s11.3-.9 16.6-2.5v8c0 2.6.6 5.1 1.8 7.3zm-11.4-34.4c-22.4 0-40.6-18.2-40.6-40.6 0-4.1-3.4-7.5-7.5-7.5-.4 0-.8 0-1.2.1 0-.6 0-1.3.1-1.9.2-5.2.3-10 .6-14.2 1-13.5 6.3-25.9 15.2-35 8.9-9.2 20.8-14.2 33.5-14.2s24.6 5 33.5 14.2c8.8 9.1 14.2 21.5 15.2 35 .3 4.2.5 9 .6 14.2v1.3c-8.2-12.6-20.8-21.8-37-27.1-15-4.8-28-4.5-28.5-4.5-2 .1-3.8.9-5.2 2.3l-13.5 14c-2.9 3-2.8 7.7.2 10.6s7.7 2.8 10.6-.2l11.3-11.7c9.7.5 40.9 4.1 53 30.8-3.3 19.7-20.2 34.4-40.3 34.4zm31.5 14.1v-8.9c8.7-6 15.7-14.5 19.8-24.4.9 6.5 2.2 12.6 4.3 17.9-3 3.6-10.1 10.4-24.1 15.4zm72.2-121.7v-18.6c0-1.1-.3-2.2-.7-3.3-4.8-10-7.3-20.6-7.3-31.5v-16c.6-24.7 25.4-43.6 56.7-43.6h104.8v59.7c0 10.9-2.4 21.5-7.3 31.5-.5 1-.7 2.1-.7 3.3v21.4c0 20.3-8.2 39.1-23 53-1.9 1.7-3.8 3.4-5.8 4.9 0 0-.1.1-.1.1-13.9 10.5-30.9 15.7-48.7 14.5-38.1-2.5-67.9-35.6-67.9-75.4zm42.2 151c-.1.1-.2.2-.4.1-.2 0-.3-.2-.4-.2l-23.3-35 7.5-7.9 35.4 24.2zm30.5-29-40.6-27.8v-14c10.5 5.7 22.3 9.2 34.8 10 2 .1 3.9.2 5.9.2 14.3 0 28.1-3.4 40.5-9.9v13.7zm31.3 28.9c0 .1-.1.2-.4.2-.2 0-.4-.1-.4-.1l-18.8-18.8 35.4-24.2 7.5 7.9zm137.4-132.5c23 0 41.7 19.4 41.7 43.2 0 4-.5 7.9-1.5 11.6-.2 0-.3 0-.5 0-.2 1.4-.5 2.9-.9 4.3-6.1 16-21.2 27.3-38.7 27.3-20.1 0-36.8-14.8-40.8-34.3-.1-.7-.2-1.4-.2-2.1-.1 0-.1 0-.2 0-.3-2.2-.5-4.4-.5-6.7 0-23.9 18.7-43.3 41.6-43.3zm-.5 126.1-17-17c.3-1.3.5-2.8.5-4.5v-3.2c4.7 1.5 9.7 2.5 14.9 2.6h1.7c5.7 0 11.2-.9 16.5-2.5v3c0 1.5.2 3 .5 4.4z"/><path d="m313.9 198.6c-28.4-28.4-87.7-22.9-111.9-19.3-7.6 1.1-13.2 7.6-13.2 15.3v17.3c0 4.1 3.4 7.5 7.5 7.5s7.5-3.4 7.5-7.5v-17.3c0-.3.2-.5.4-.5 9.7-1.5 28.9-3.7 48.7-2.4 23.4 1.6 40.3 7.4 50.3 17.4 2.9 2.9 7.7 2.9 10.6 0 3.1-2.9 3.1-7.6.1-10.5z"/></g></svg>